<svg width="45" height="40" viewBox="-5 -5 55 20" fill="none" xmlns="http://www.w3.org/2000/svg">
    <path d="M18.8264 12.9582L18.843 12.5562L18.454 12.4539C16.4745 11.9334 15.0833 10.3064 15.0833 8.4375C15.0833 6.17205 17.1393 4.25 19.7917 4.25C22.444 4.25 24.5 6.17205 24.5 8.4375C24.5 10.2443 23.1956 11.8273 21.3113 12.4069L20.9656 12.5132L20.9584 12.8749C20.9277 14.4279 20.4953 15.6171 19.6796 16.5298C18.8511 17.4551 17.718 17.9972 16.4205 18.3342C15.1182 18.6724 13.6969 18.7931 12.3153 18.908L12.3149 18.908L12.2622 18.9124C11.4478 18.9809 10.6373 19.049 9.89921 19.1593C9.14796 19.2716 8.43647 19.4323 7.8461 19.7012L7.84581 19.7014C7.30899 19.9463 6.92601 20.2735 6.66649 20.6653L6.30997 21.2035L6.92027 21.4141C8.70397 22.0294 9.91667 23.5658 9.91667 25.3125C9.91667 27.578 7.86065 29.5 5.20833 29.5C2.55602 29.5 0.5 27.578 0.5 25.3125C0.5 23.4746 1.84462 21.8696 3.78298 21.3168L4.14583 21.2133V20.8359V9.1582V8.77987L3.78175 8.67703C1.84464 8.12987 0.5 6.52549 0.5 4.6875C0.5 2.42205 2.55602 0.5 5.20833 0.5C7.86065 0.5 9.91667 2.42205 9.91667 4.6875C9.91667 6.52549 8.57203 8.12987 6.63492 8.67703L6.27083 8.77987V9.1582V17.5957V18.3571L6.96953 18.0545C8.43607 17.4194 10.2498 17.2577 12.1051 17.1038C13.2651 17.0078 14.4365 16.9105 15.4444 16.6904C16.4431 16.4723 17.3744 16.1157 17.9832 15.4331C18.5327 14.8216 18.7848 13.9638 18.8264 12.9582ZM6.75 4.6875C6.75 3.84748 6.00654 3.25 5.20833 3.25C4.41013 3.25 3.66667 3.84748 3.66667 4.6875C3.66667 5.52752 4.41013 6.125 5.20833 6.125C6.00654 6.125 6.75 5.52752 6.75 4.6875ZM3.66667 25.3125C3.66667 26.1525 4.41013 26.75 5.20833 26.75C6.00654 26.75 6.75 26.1525 6.75 25.3125C6.75 24.4725 6.00654 23.875 5.20833 23.875C4.41013 23.875 3.66667 24.4725 3.66667 25.3125ZM21.3333 8.4375C21.3333 7.59748 20.5899 7 19.7917 7C18.9935 7 18.25 7.59748 18.25 8.4375C18.25 9.27752 18.9935 9.875 19.7917 9.875C20.5899 9.875 21.3333 9.27752 21.3333 8.4375Z" stroke="white"/>
</svg>