<svg width="45" height="40" viewBox="-5 -5 55 20" fill="none" xmlns="http://www.w3.org/2000/svg">
    <path d="M13.2213 24.498L13.2183 24.497L10.3591 23.6327L10.3591 23.6327L10.355 23.6315C10.3457 23.6288 10.3323 23.6213 10.3209 23.5996C10.3092 23.5772 10.3042 23.547 10.3125 23.5152C10.3126 23.5148 10.3127 23.5144 10.3128 23.514L16.7097 0.557232L16.7097 0.557236L16.7107 0.553335C16.7176 0.52801 16.731 0.514397 16.7437 0.507202C16.7563 0.500013 16.7698 0.498025 16.7848 0.502126C16.7851 0.502223 16.7855 0.502323 16.7858 0.502427L19.6409 1.36553L19.6409 1.36555L19.645 1.36675C19.6543 1.3695 19.6677 1.37695 19.6791 1.39868C19.6908 1.42102 19.6958 1.45118 19.6875 1.48297C19.6874 1.48338 19.6873 1.48379 19.6872 1.4842L13.2911 24.4382C13.291 24.4385 13.2909 24.4388 13.2909 24.4391C13.2815 24.471 13.2643 24.4873 13.2521 24.4943C13.2411 24.5006 13.2324 24.5014 13.2213 24.498ZM7.35858 19.1623L7.35856 19.1623L7.35518 19.1661C7.34795 19.1743 7.34191 19.178 7.33789 19.1799C7.33355 19.1819 7.32896 19.183 7.32406 19.1831C7.31561 19.1834 7.30072 19.181 7.28305 19.1637L7.28281 19.1635L0.528655 12.5663L0.528668 12.5663L0.52557 12.5633C0.511488 12.5498 0.5 12.5272 0.5 12.4967C0.5 12.4662 0.511488 12.4436 0.52557 12.4301L0.525582 12.4301L0.528523 12.4272L7.28268 5.83493L7.28305 5.83458C7.2988 5.81917 7.31225 5.81658 7.32195 5.81691C7.33228 5.81726 7.34533 5.82126 7.35858 5.83599L9.39749 8.10178L9.39746 8.10181L9.40132 8.10599C9.41518 8.12105 9.42449 8.14332 9.42319 8.1716C9.42188 8.20012 9.41016 8.22355 9.3934 8.23902C9.39336 8.23906 9.39332 8.2391 9.39328 8.23913L5.14729 12.1305L4.74509 12.4991L5.14729 12.8677L9.39328 16.7591C9.39336 16.7592 9.39343 16.7593 9.39351 16.7593C9.40849 16.7732 9.4201 16.7952 9.42135 16.8247C9.42262 16.8549 9.41241 16.8799 9.39771 16.8962L9.39749 16.8965L7.35858 19.1623ZM29.4744 12.5682L29.4713 12.5712L22.7209 19.1647C22.7205 19.1651 22.7202 19.1654 22.7198 19.1657C22.7033 19.1811 22.6882 19.1841 22.6781 19.1838C22.6724 19.1836 22.6672 19.1823 22.6625 19.1801C22.6582 19.1781 22.652 19.1743 22.6448 19.1661L22.6448 19.1661L22.6414 19.1623L20.6025 16.8965L20.6025 16.8965L20.5987 16.8923C20.5848 16.8772 20.5755 16.8549 20.5768 16.8267C20.5781 16.7981 20.5898 16.7747 20.6066 16.7592C20.6066 16.7592 20.6067 16.7592 20.6067 16.7591L24.8527 12.8677L25.2547 12.4994L24.8529 12.1307L20.6067 8.23425C20.5916 8.22038 20.5799 8.19833 20.5786 8.16863C20.5774 8.13844 20.5876 8.11347 20.6023 8.09715L20.6025 8.0969L22.6388 5.83402C22.6535 5.81857 22.6679 5.81426 22.6795 5.81392C22.6913 5.81357 22.7042 5.81721 22.7172 5.82993L29.4712 12.4318L29.4712 12.4319L29.4744 12.435C29.4885 12.4485 29.5 12.4711 29.5 12.5016C29.5 12.5321 29.4885 12.5547 29.4744 12.5682L29.4744 12.5682Z" stroke="white"/>
</svg>