<svg width="13" height="13" viewBox="0 0 448 456" fill="none" xmlns="http://www.w3.org/2000/svg">
    <path d="M0 56V16C0 7.163 7.163 0 16 0H432C440.837 0 448 7.163 448 16V56C448 64.837 440.837 72 432 72H16C7.163 72 0 64.837 0 56ZM16 200H432C440.837 200 448 192.837 448 184V144C448 135.163 440.837 128 432 128H16C7.163 128 0 135.163 0 144V184C0 192.837 7.163 200 16 200ZM16 456H432C440.837 456 448 448.837 448 440V400C448 391.163 440.837 384 432 384H16C7.163 384 0 391.163 0 400V440C0 448.837 7.163 456 16 456ZM16 328H432C440.837 328 448 320.837 448 312V272C448 263.163 440.837 256 432 256H16C7.163 256 0 263.163 0 272V312C0 320.837 7.163 328 16 328Z" fill="white"/>
</svg>