<svg width="28" height="28" viewBox="0 0 28 28" fill="none" xmlns="http://www.w3.org/2000/svg">
<path d="M22.5 12.25V13.25H23.5H25C26.2336 13.25 27 14.0993 27 14.875V25.375C27 26.1507 26.2336 27 25 27H3C1.76643 27 1 26.1507 1 25.375V14.875C1 14.0993 1.76643 13.25 3 13.25H4.5H5.5V12.25V8.3125C5.5 4.40322 9.18518 1 14 1C18.8148 1 22.5 4.40322 22.5 8.3125V12.25ZM18.5 13.25H19.5V12.25V8.3125C19.5 5.46787 16.9039 3.375 14 3.375C11.0961 3.375 8.5 5.46787 8.5 8.3125V12.25V13.25H9.5H18.5Z" stroke="#B0B0B0" stroke-width="2"/>
</svg>
