<svg width="28" height="23" viewBox="0 0 28 23" fill="none" xmlns="http://www.w3.org/2000/svg">
<path d="M25.375 0H2.625C1.17523 0 0 1.28716 0 2.875V20.125C0 21.7128 1.17523 23 2.625 23H25.375C26.8248 23 28 21.7128 28 20.125V2.875C28 1.28716 26.8248 0 25.375 0ZM25.375 2.875V5.31905C24.1488 6.41269 22.1939 8.11325 18.0148 11.6974C17.0938 12.4908 15.2694 14.397 14 14.3748C12.7308 14.3972 10.9058 12.4905 9.98523 11.6974C5.80672 8.11379 3.85137 6.41287 2.625 5.31905V2.875H25.375ZM2.625 20.125V9.00821C3.87811 10.1014 5.65518 11.6354 8.3638 13.9584C9.5591 14.9889 11.6524 17.2638 14 17.2499C16.3361 17.2638 18.4028 15.0219 19.6357 13.9588C22.3443 11.6359 24.1218 10.1015 25.375 9.00827V20.125H2.625Z" fill="#D9D9D9"/>
</svg>
