<svg width="45" height="40" viewBox="-5 -5 55 20" fill="none" xmlns="http://www.w3.org/2000/svg">
        <path d="M6.94444 4.85714H6.44444V5.35714V5.80357C6.44444 6.39384 6.09423 6.64286 5.90278 6.64286H5.20833C5.01688 6.64286 4.66667 6.39384 4.66667 5.80357V5.35714V4.85714H4.16667H0.550621C0.549703 4.85604 0.548719 4.85481 0.547671 4.85347C0.526378 4.82609 0.5 4.76862 0.5 4.6875V2.45536C0.5 2.37423 0.526378 2.31677 0.547671 2.28939C0.548719 2.28804 0.549703 2.28682 0.550621 2.28571H4.16667H4.66667V1.78571V1.33929C4.66667 0.749019 5.01688 0.5 5.20833 0.5H5.90278C6.09423 0.5 6.44444 0.749019 6.44444 1.33929V1.78571V2.28571H6.94444H24.4494C24.4503 2.28682 24.4513 2.28804 24.4523 2.28939C24.4736 2.31677 24.5 2.37423 24.5 2.45536V4.6875C24.5 4.76862 24.4736 4.82609 24.4523 4.85346C24.4513 4.85481 24.4503 4.85604 24.4494 4.85714H6.94444ZM0.559796 4.86658C0.559792 4.8666 0.559461 4.86638 0.558817 4.86584L0.559796 4.86658ZM0.559796 2.27628C0.559801 2.27631 0.559478 2.27658 0.558815 2.27702L0.559796 2.27628ZM24.4402 2.27628C24.4402 2.27625 24.4406 2.27648 24.4412 2.27704L24.4402 2.27628ZM24.4402 4.86658C24.4402 4.86655 24.4405 4.86627 24.4412 4.86584L24.4402 4.86658ZM20.3333 10.7143V11.2143H20.8333H24.4494C24.4503 11.2154 24.4513 11.2166 24.4523 11.218C24.4736 11.2453 24.5 11.3028 24.5 11.3839V13.6161C24.5 13.6972 24.4736 13.7547 24.4523 13.782C24.4513 13.7834 24.4503 13.7846 24.4494 13.7857H20.8333H20.3333V14.2857V14.7321C20.3333 15.3224 19.9831 15.5714 19.7917 15.5714H19.0972C18.9058 15.5714 18.5556 15.3224 18.5556 14.7321V14.2857V13.7857H18.0556H0.550621C0.549703 13.7846 0.548719 13.7834 0.547671 13.782C0.526378 13.7547 0.5 13.6972 0.5 13.6161V11.3839C0.5 11.3028 0.526378 11.2453 0.547671 11.218C0.548719 11.2166 0.549703 11.2154 0.550621 11.2143H18.0556H18.5556V10.7143V10.2679C18.5556 9.67759 18.9058 9.42857 19.0972 9.42857H19.7917C19.9831 9.42857 20.3333 9.67759 20.3333 10.2679V10.7143ZM24.4402 11.2049C24.4402 11.2048 24.4406 11.2051 24.4412 11.2056L24.4402 11.2049ZM24.4402 13.7951C24.4402 13.7951 24.4405 13.7948 24.4412 13.7944L24.4402 13.7951ZM0.559796 13.7951C0.559792 13.7952 0.55945 13.795 0.558788 13.7944L0.559796 13.7951ZM0.559796 11.2049C0.559801 11.2049 0.559478 11.2052 0.558815 11.2056L0.559796 11.2049ZM12 19.6429V20.1429H12.5H24.4494C24.4503 20.144 24.4513 20.1452 24.4523 20.1465C24.4736 20.1739 24.5 20.2314 24.5 20.3125V22.5446C24.5 22.6258 24.4736 22.6832 24.4523 22.7106C24.4513 22.712 24.4503 22.7132 24.4494 22.7143H12.5H12V23.2143V23.6607C12 24.251 11.6498 24.5 11.4583 24.5H10.7639C10.5724 24.5 10.2222 24.251 10.2222 23.6607V23.2143V22.7143H9.72222H0.55062C0.549702 22.7132 0.548719 22.712 0.547671 22.7106C0.526378 22.6832 0.5 22.6258 0.5 22.5446V20.3125C0.5 20.2314 0.526378 20.1739 0.547671 20.1465C0.548719 20.1452 0.549703 20.144 0.550621 20.1429H9.72222H10.2222V19.6429V19.1964C10.2222 18.6062 10.5724 18.3571 10.7639 18.3571H11.4583C11.6498 18.3571 12 18.6062 12 19.1964V19.6429ZM24.4402 20.1334C24.4402 20.1334 24.4405 20.1336 24.4412 20.1341L24.4402 20.1334ZM24.4402 22.7237C24.4402 22.7237 24.4405 22.7234 24.4412 22.723L24.4402 22.7237ZM0.559795 22.7237C0.559791 22.7237 0.559448 22.7235 0.558785 22.723L0.559795 22.7237ZM0.559797 20.1334C0.559802 20.1334 0.559478 20.1337 0.558812 20.1342L0.559797 20.1334Z" stroke="white"/>
    </svg>