<svg width="45" height="40" viewBox="-5 -5 55 20" fill="none" xmlns="http://www.w3.org/2000/svg">
    <path d="M21.8804 14.5311L21.9491 14.1745C22.1624 13.0674 22.1624 11.9325 21.9491 10.8255L21.8804 10.4689L22.1982 10.2932L24.4421 9.05339C24.4969 9.0231 24.5068 8.9743 24.4958 8.94045L24.4958 8.94042C23.9372 7.21901 22.9829 5.66139 21.7322 4.36595L21.7321 4.36588C21.7134 4.34657 21.6851 4.33073 21.6502 4.32565C21.6152 4.32055 21.5805 4.32738 21.5527 4.34271L19.3107 5.58231L19.0139 5.74642L18.7517 5.53132C17.8556 4.79625 16.8243 4.22517 15.7094 3.84765L15.3697 3.73264V3.37406V0.895037C15.3697 0.862621 15.3438 0.808956 15.2695 0.792993L15.2695 0.792988C13.4072 0.392505 11.5022 0.412183 9.7292 0.793332L21.8804 14.5311ZM21.8804 14.5311L22.1982 14.7068M21.8804 14.5311L22.1982 14.7068M22.1982 14.7068L24.442 15.9467L24.4421 15.9467M22.1982 14.7068L24.4421 15.9467M24.4421 15.9467C24.4968 15.9769 24.5067 16.0256 24.4957 16.0596C23.9372 17.781 22.9829 19.3386 21.7321 20.634L21.7321 20.6341M24.4421 15.9467L21.7321 20.6341M21.7321 20.6341C21.7134 20.6534 21.6851 20.6692 21.6503 20.6743M21.7321 20.6341L21.6503 20.6743M15.731 24.4831C15.8208 24.3757 15.8697 24.2423 15.8697 24.1049V21.6259L15.731 24.4831ZM15.731 24.4831C15.6413 24.5904 15.5161 24.6653 15.3759 24.6955L15.731 24.4831ZM19.0139 19.2536L19.3107 19.4177L21.5526 20.6572L19.0139 19.2536ZM19.0139 19.2536L18.7517 19.4687M19.0139 19.2536L18.7517 19.4687M18.7517 19.4687C17.8555 20.2037 16.8242 20.7748 15.7093 21.1524L15.3697 21.2674M18.7517 19.4687L15.3697 21.2674M15.3697 21.2674V21.6259M15.3697 21.2674V21.6259M15.3697 21.6259V24.1049C15.3697 24.1229 15.3634 24.1433 15.3475 24.1623L15.3474 24.1624M15.3697 21.6259L15.3474 24.1624M15.3474 24.1624C15.331 24.182 15.3048 24.1994 15.2708 24.2067C13.4978 24.5878 11.5928 24.6075 9.73048 24.207L9.73045 24.207M15.3474 24.1624L9.73045 24.207M9.73045 24.207C9.65621 24.191 9.63027 24.1374 9.63027 24.105V21.6259V21.2674M9.73045 24.207L9.63027 21.2674M9.63027 21.2674L9.29065 21.1524M9.63027 21.2674L9.29065 21.1524M9.29065 21.1524C8.17577 20.7748 7.14443 20.2037 6.24829 19.4687L5.98606 19.2536M9.29065 21.1524L5.98606 19.2536M5.98606 19.2536L5.68926 19.4177M5.98606 19.2536L5.68926 19.4177M5.68926 19.4177L3.44739 20.6572C3.41961 20.6726 3.3849 20.6794 3.34986 20.6744C3.31489 20.6693 3.28653 20.6534 3.26788 20.6341L3.26784 20.634M5.68926 19.4177L3.26784 20.634M3.26784 20.634C2.01714 19.3386 1.06275 17.781 0.504248 16.0596L0.504237 16.0596M3.26784 20.634L0.504237 16.0596M0.504237 16.0596C0.493251 16.0257 0.503135 15.9769 0.557946 15.9466L2.80177 14.7068L3.11963 14.5312M0.504237 16.0596L3.11963 14.5312M3.11963 14.5312L3.05092 14.1745M3.11963 14.5312L3.05092 14.1745M3.05092 14.1745C2.83758 13.0675 2.83758 11.9326 3.05092 10.8255L3.11963 10.4689M3.05092 14.1745L3.11963 10.4689M3.11963 10.4689L2.80177 10.2933M3.11963 10.4689L2.80177 10.2933M2.80177 10.2933L0.557955 9.05342L0.557932 9.0534M2.80177 10.2933L0.557932 9.0534M0.557932 9.0534C0.503234 9.02318 0.493277 8.97444 0.504298 8.94047L0.0287453 8.78617M0.557932 9.0534L0.0287453 8.78617M0.0287453 8.78617L0.5043 8.94046C1.06281 7.21905 2.01714 5.66144 3.26789 4.36601L3.26798 4.36592M0.0287453 8.78617L3.26798 4.36592M3.26798 4.36592C3.28661 4.34662 3.31492 4.33078 3.34984 4.3257C3.38487 4.32061 3.41957 4.32742 3.44735 4.34277L5.68931 5.58236L5.98611 5.74647M3.26798 4.36592L5.98611 5.74647M5.98611 5.74647L6.24834 5.53138M5.98611 5.74647L6.24834 5.53138M6.24834 5.53138C7.14449 4.79632 8.17583 4.22524 9.2907 3.84769L9.63032 3.73268M6.24834 5.53138L9.63032 3.73268M9.63032 3.73268V3.37411M9.63032 3.73268V3.37411M9.63032 3.37411V0.895138M9.63032 3.37411V0.895138M21.6503 20.6743C21.6153 20.6794 21.5806 20.6726 21.5528 20.6574L21.6503 20.6743ZM9.63032 0.895138C9.63032 0.877183 9.63656 0.856758 9.65261 0.837558M9.63032 0.895138L9.65261 0.837558M9.65261 0.837558C9.66893 0.818028 9.69511 0.800683 9.72913 0.793348L9.65261 0.837558ZM17.2122 12.5C17.2122 9.98014 15.0779 7.96776 12.5 7.96776C9.92206 7.96776 7.78784 9.98014 7.78784 12.5C7.78784 15.0199 9.92206 17.0323 12.5 17.0323C15.0779 17.0323 17.2122 15.0199 17.2122 12.5Z" stroke="black"/>
</svg>