<svg width="45" height="40" viewBox="-5 -5 55 20" fill="none" xmlns="http://www.w3.org/2000/svg">
    <path d="M18.2325 0.577574C18.5457 0.436285 18.9211 0.475485 19.2157 0.794915C19.216 0.79517 19.2162 0.795425 19.2164 0.795681L29.214 11.7282C29.2143 11.7285 29.2146 11.7288 29.2149 11.7292C29.595 12.1504 29.595 12.8482 29.2149 13.2694C29.2146 13.2698 29.2143 13.2701 29.214 13.2704L19.2153 24.2042C18.9235 24.5232 18.5482 24.5641 18.2339 24.4231C17.9149 24.2799 17.6437 23.9377 17.6437 23.435V17.186V16.686H17.1437H9.04803C8.57361 16.686 8.1194 16.2564 8.1194 15.6238V9.37482C8.1194 8.7422 8.57361 8.31257 9.04803 8.31257H17.1437H17.6437V7.81257V1.56362C17.6437 1.064 17.9137 0.721423 18.2325 0.577574ZM10.9292 21.6124V24.2161C10.9292 24.4126 10.7904 24.4972 10.7148 24.4972H5.71456C2.87692 24.4972 0.5 21.9651 0.5 18.7483V6.25035C0.5 3.03353 2.87692 0.501384 5.71456 0.501384H10.7148C10.7904 0.501384 10.9292 0.586016 10.9292 0.782507V3.38624C10.9292 3.58272 10.7904 3.66736 10.7148 3.66736H5.71456C4.34366 3.66736 3.30971 4.86506 3.30971 6.25035V18.7483C3.30971 20.1335 4.34366 21.3313 5.71456 21.3313H10.7148C10.7904 21.3313 10.9292 21.4159 10.9292 21.6124Z" stroke="white"/>
</svg>