<svg width="45" height="40" viewBox="-5 -5 55 20" fill="none" xmlns="http://www.w3.org/2000/svg">
    <path d="M29.0069 8.32724L29.0068 8.3272L29.0008 8.32981L16.076 13.8684C15.3712 14.155 14.6288 14.155 13.9241 13.8684L4.52813 9.84198L4.10798 9.66193L3.89107 10.0643C3.43583 10.9088 3.31626 11.7553 3.27298 12.7762L3.26253 13.0226L3.45179 13.1809C3.75093 13.431 4.00003 13.9403 4.00003 14.5833C4.00003 15.2444 3.73715 15.7616 3.4286 16.0041L3.21411 16.1727L3.23984 16.4444L3.99907 24.4584L3.99908 24.4584C4.00054 24.4739 4.00035 24.4878 3.99922 24.5H2.00085C1.99972 24.4878 1.99953 24.4738 2.001 24.4583L2.76023 16.4443L2.78596 16.1726L2.57144 16.004C2.26293 15.7615 2.00004 15.2444 2.00004 14.5833C2.00004 13.9173 2.26664 13.398 2.57763 13.1576L2.7626 13.0146L2.77147 12.781C2.81482 11.6396 2.95239 10.711 3.3041 9.85284L3.49074 9.39748L3.0384 9.20364L0.999244 8.32981L0.999261 8.32977L0.993131 8.32724C0.728237 8.21786 0.49945 7.83683 0.500001 7.29138C0.500552 6.7455 0.730475 6.36454 0.993148 6.25607L0.993165 6.25611L0.999244 6.25351L13.924 0.714915C14.6288 0.428359 15.3712 0.428362 16.076 0.714923L29.0007 6.25351L29.0007 6.25355L29.0068 6.25608C29.2718 6.36546 29.5005 6.74649 29.5 7.29194C29.4995 7.83782 29.2695 8.21877 29.0069 8.32724ZM16.8908 16.7874L16.8908 16.7874L16.8987 16.784L16.9081 16.78L16.9084 16.7799L23.3607 14.0145L23.8748 18.7748C23.8675 19.1799 23.6807 19.602 23.2761 20.0272C22.8608 20.4636 22.2362 20.8793 21.4261 21.2394C19.8072 21.9589 17.5357 22.4167 15 22.4167C12.4644 22.4167 10.1929 21.9589 8.57398 21.2394C7.7639 20.8793 7.13929 20.4636 6.72397 20.0272C6.31938 19.602 6.13259 19.1799 6.12527 18.7748L6.63942 14.0145L13.0917 16.7799L13.092 16.78L13.1014 16.784L13.1014 16.7841L13.1093 16.7874L13.119 16.7913L13.1195 16.7915C14.345 17.2917 15.6551 17.2917 16.8806 16.7915L16.8811 16.7913L16.8908 16.7874Z" stroke="white"/>
</svg>