    <svg width="45" height="40" viewBox="-5 -5 55 20" fill="none" xmlns="http://www.w3.org/2000/svg">
        <path d="M12.5 0.5C16.5386 0.5 19.8125 3.7739 19.8125 7.8125C19.8125 11.8511 16.5386 15.125 12.5 15.125C8.4614 15.125 5.1875 11.8511 5.1875 7.8125C5.1875 3.7739 8.4614 0.5 12.5 0.5ZM6.9328 15.9697C9.87775 17.9765 14.3302 18.5325 18.0676 15.9698L21.3281 16.7849C23.1922 17.251 24.5 18.9259 24.5 20.8474V22.6562C24.5 23.6745 23.6745 24.5 22.6562 24.5H2.34375C1.32546 24.5 0.5 23.6745 0.5 22.6562V20.8474C0.5 18.9259 1.80776 17.251 3.6719 16.7849L6.9328 15.9697Z" stroke="white"/>
    </svg>