<svg width="45" height="40" viewBox="-5 -5 55 20" fill="none" xmlns="http://www.w3.org/2000/svg">
    <path d="M7.4905 16.6499C7.30942 17.2962 7.21251 17.9867 7.21251 18.699V22.4167H1.93751C1.63261 22.4167 1.20001 22.056 1.20001 21.3542V18.716C1.20001 17.4317 1.89014 16.4247 2.7252 16.1611L2.72523 16.1611L3.83586 15.8105C4.83134 16.606 6.16313 16.998 7.4905 16.6499ZM27.1875 22.4167V18.699C27.1875 17.982 27.0893 17.2872 26.9059 16.6374C28.0754 16.9509 29.3932 16.76 30.5653 15.8108L31.6748 16.1611L31.8253 15.6842L31.6748 16.1611C32.5099 16.4247 33.2 17.4317 33.2 18.716V21.3542C33.2 22.056 32.7674 22.4167 32.4625 22.4167H27.1875ZM22.8999 14.6282L23.0504 14.1514L22.8999 14.6282C24.2859 15.0657 25.3625 16.6977 25.3625 18.699V22.6562C25.3625 23.7895 24.6529 24.5 24.0063 24.5H10.3938C9.74715 24.5 9.03751 23.7895 9.03751 22.6562V18.699C9.03751 16.6977 10.1141 15.0657 11.5001 14.6282L11.5001 14.6282L13.2947 14.0618C15.3707 15.7894 18.4858 16.2646 21.1062 14.062L22.8999 14.6282ZM17.2 0.5C19.8116 0.5 22.1141 3.2217 22.1141 6.83594C22.1141 10.4502 19.8116 13.1719 17.2 13.1719C14.5885 13.1719 12.2859 10.4502 12.2859 6.83594C12.2859 3.2217 14.5885 0.5 17.2 0.5ZM31.0344 10.8073C31.0344 13.1631 29.5399 14.8646 27.925 14.8646C26.3102 14.8646 24.8156 13.1631 24.8156 10.8073C24.8156 8.45152 26.3102 6.75 27.925 6.75C29.5399 6.75 31.0344 8.45152 31.0344 10.8073ZM9.58439 10.8073C9.58439 13.1631 8.08986 14.8646 6.47501 14.8646C4.86016 14.8646 3.36564 13.1631 3.36564 10.8073C3.36564 8.45152 4.86016 6.75 6.47501 6.75C8.08986 6.75 9.58439 8.45152 9.58439 10.8073Z" stroke="white"/>
</svg>